<?xml version="1.0" standalone="no"?><!DOCTYPE svg PUBLIC "-//W3C//DTD SVG 1.1//EN" "http://www.w3.org/Graphics/SVG/1.1/DTD/svg11.dtd"><svg t="1525684733683" class="icon" style="" viewBox="0 0 1024 1024" version="1.1" xmlns="http://www.w3.org/2000/svg" p-id="3334" xmlns:xlink="http://www.w3.org/1999/xlink" width="200" height="200"><defs><style type="text/css"></style></defs><path d="M544 64c-181.333333 0-330.666667 162.133333-330.666667 362.666667v6.4l-53.333333 115.2c-2.133333 4.266667-2.133333 10.666667 0 17.066666 2.133333 4.266667 6.4 10.666667 10.666667 12.8l85.333333 40.533334v151.466666c0 12.8 8.533333 21.333333 21.333333 21.333334h106.666667v149.333333c0 12.8 8.533333 21.333333 21.333333 21.333333h298.666667c12.8 0 21.333333-8.533333 21.333333-21.333333v-209.066667c93.866667-68.266667 149.333333-181.333333 149.333334-302.933333 0-202.666667-149.333333-364.8-330.666667-364.8z m155.733333 631.466667l-8.533333 6.4c-6.4 4.266667-8.533333 10.666667-8.533333 17.066666v198.4h-256v-149.333333c0-12.8-8.533333-21.333333-21.333334-21.333333h-106.666666v-142.933334c0-8.533333-4.266667-14.933333-12.8-19.2l-78.933334-36.266666 46.933334-100.266667c2.133333-2.133333 2.133333-6.4 2.133333-8.533333v-10.666667c0-177.066667 130.133333-320 288-320s288 142.933333 288 320c0 106.666667-49.066667 206.933333-132.266667 266.666667z" fill="#f4ea2a" p-id="3335"></path><path d="M373.333333 358.4c-6.4-4.266667-12.8-6.4-21.333333-6.4-23.466667 0-42.666667 19.2-42.666667 42.666667s19.2 42.666667 42.666667 42.666666 42.666667-19.2 42.666667-42.666666c0-8.533333-2.133333-14.933333-6.4-21.333334l81.066666-81.066666-14.933333-14.933334-81.066667 81.066667z m-21.333333 57.6c-12.8 0-21.333333-8.533333-21.333333-21.333333s8.533333-21.333333 21.333333-21.333334 21.333333 8.533333 21.333333 21.333334-8.533333 21.333333-21.333333 21.333333zM556.373333 376.362667l-60.330666-60.352 15.082666-15.082667 60.330667 60.352zM714.666667 245.333333c-23.466667 0-42.666667 19.2-42.666667 42.666667 0 12.8 6.4 25.6 14.933333 32l-53.333333 53.333333 14.933333 14.933334 59.733334-59.733334h6.4c23.466667 0 42.666667-19.2 42.666666-42.666666s-19.2-40.533333-42.666666-40.533334z m0 64c-12.8 0-21.333333-8.533333-21.333334-21.333333s8.533333-21.333333 21.333334-21.333333 21.333333 8.533333 21.333333 21.333333-8.533333 21.333333-21.333333 21.333333z" fill="#f4ea2a" p-id="3336"></path><path d="M480 266.666667m-53.333333 0a53.333333 53.333333 0 1 0 106.666666 0 53.333333 53.333333 0 1 0-106.666666 0Z" fill="#f4ea2a" p-id="3337"></path><path d="M608 394.666667m-53.333333 0a53.333333 53.333333 0 1 0 106.666666 0 53.333333 53.333333 0 1 0-106.666666 0Z" fill="#f4ea2a" p-id="3338"></path></svg>