<?xml version="1.0" standalone="no"?><!DOCTYPE svg PUBLIC "-//W3C//DTD SVG 1.1//EN" "http://www.w3.org/Graphics/SVG/1.1/DTD/svg11.dtd"><svg t="1525926164542" class="icon" style="" viewBox="0 0 1024 1024" version="1.1" xmlns="http://www.w3.org/2000/svg" p-id="8109" xmlns:xlink="http://www.w3.org/1999/xlink" width="200" height="200"><defs><style type="text/css"></style></defs><path d="M610.16 156.044h-385.858c0 0 0 0 0 0-26.213 0-47.464 21.25-47.464 47.464v640.727c0 13.1 5.305 24.964 13.894 33.56 8.577 8.59 20.435 13.905 33.532 13.905 0.013 0 0.026 0 0.039 0h522.071c0 0 0 0 0 0 26.213 0 47.464-21.25 47.464-47.464 0 0 0 0 0 0v-504.523l-183.679-183.667z" fill="" p-id="8110"></path><path d="M610.16 132.312h-385.858c0 0 0 0 0 0-26.213 0-47.464 21.25-47.464 47.464v640.727c0 13.1 5.305 24.964 13.905 33.56 8.571 8.59 20.422 13.905 33.514 13.905 0.014 0 0.028 0 0.041 0h522.071c0 0 0 0 0 0 26.213 0 47.464-21.25 47.464-47.464 0 0 0 0 0 0v-504.523l-183.673-183.667z" fill="#63D0A8" p-id="8111"></path><path d="M693.359 215.512l-82.919 82.912 183.392 183.392v-165.836l-100.474-100.468z" fill="" p-id="8112"></path><path d="M610.16 132.312h-6.177v142.386c0 0 0 0 0 0 0 26.213 21.25 47.464 47.464 47.464 0 0 0 0 0 0h142.386v-6.177l-183.673-183.673z" fill="#CAFFEC" p-id="8113"></path><path d="M289.557 464.542h391.55c0.094 0.002 0.204 0.003 0.317 0.003 9.833 0 17.803-7.971 17.803-17.803 0-9.832-7.971-17.803-17.803-17.803-0.112 0-0.222 0.001-0.333 0.004h-391.534c-9.697 0.178-17.486 8.078-17.486 17.8s7.792 17.622 17.47 17.8zM681.113 535.732h-391.556c-9.638 0.249-17.356 8.123-17.356 17.798s7.718 17.547 17.333 17.797l391.573 0.001c9.639-0.248 17.359-8.122 17.359-17.797 0-9.674-7.716-17.545-17.331-17.797zM681.113 642.517h-391.556c-9.697 0.178-17.487 8.079-17.487 17.8s7.792 17.622 17.47 17.8h391.567c9.597-0.303 17.263-8.156 17.263-17.8 0-9.642-7.662-17.494-17.23-17.799zM289.557 357.757h189.844c9.697-0.178 17.486-8.079 17.486-17.8s-7.792-17.622-17.47-17.8h-189.861c-9.697 0.178-17.487 8.079-17.487 17.8s7.792 17.622 17.47 17.8z" fill="#FFFFFF" p-id="8114"></path><path d="M519.513 732.033c-0.017 94.573 78.761 171.264 175.972 171.281 97.222 0.011 176.040-76.63 176.063-171.214v-0.073c0-94.573-78.812-171.248-176.023-171.248-97.2 0.007-176.012 76.68-176.012 171.253z" fill="#C8C6C4" p-id="8115"></path><path d="M539.768 732.033c-0.022 83.694 69.705 151.549 155.722 151.571 86.034 0.028 155.79-67.804 155.807-151.499v-0.079c0-83.694-69.733-151.537-155.767-151.537-86.029 0.007-155.762 67.849-155.762 151.543z" fill="#FFFFFF" p-id="8116"></path><path d="M687.813 744.808c0 8.359 6.964 15.131 15.56 15.131 8.606 0 15.576-6.772 15.576-15.131 0-8.364-6.964-15.148-15.576-15.148-8.595-0.007-15.56 6.778-15.56 15.148z" fill="#5B5144" p-id="8117"></path><path d="M709.604 730.244c0 3.358-2.784 6.075-6.233 6.075-3.431 0-6.221-2.717-6.221-6.075v-81.837c0-3.347 2.79-6.064 6.221-6.064 3.448 0 6.233 2.717 6.233 6.064v81.837zM690.271 752.351c1.089-0.894 2.497-1.438 4.031-1.438 1.89 0 3.588 0.822 4.754 2.13 0.923 1.049 1.484 2.428 1.484 3.937 0 1.776-0.776 3.369-2.007 4.463l-0.187 0.152-37.98 31.416c-1.088 0.903-2.498 1.45-4.038 1.45-1.887 0-3.58-0.823-4.743-2.13-0.928-1.048-1.492-2.425-1.492-3.934 0-1.778 0.781-3.371 2.018-4.46 0.074-0.056 0.119-0.101 0.176-0.158l37.98-31.427z" fill="#5B5144" p-id="8118"></path></svg>