<?xml version="1.0" standalone="no"?><!DOCTYPE svg PUBLIC "-//W3C//DTD SVG 1.1//EN" "http://www.w3.org/Graphics/SVG/1.1/DTD/svg11.dtd"><svg t="1525684656230" class="icon" style="" viewBox="0 0 1024 1024" version="1.1" xmlns="http://www.w3.org/2000/svg" p-id="1245" xmlns:xlink="http://www.w3.org/1999/xlink" width="200" height="200"><defs><style type="text/css"></style></defs><path d="M787.45268844 478.34445219a23.52620813 23.52620813 0 0 1-16.01089125-6.208305c-276.10619438-255.847515-512.67528938-11.76310406-522.80462906 0a23.52620813 23.52620813 0 0 1-34.30905375-32.67528938c2.61402281-2.94077625 278.06671219-289.17631031 588.15520781 0a23.52620813 23.52620813 0 0 1-16.01089221 40.84411125zM512.65350594 714.91354625a453.20626313 453.20626313 0 0 1-297.99863906-130.70115656 23.52620813 23.52620813 0 0 1 34.30905375-32.67528938c9.80258719 10.45609219 246.69843469 254.54050406 522.80462906 0a23.52620813 23.52620813 0 1 1 32.67528936 34.63580625c-104.88767905 96.39210375-204.54731156 128.74063969-291.79033311 128.74063969z" p-id="1246" fill="#1296db"></path><path d="M509.71272967 650.86997938a138.86997938 138.86997938 0 1 1 138.86997939-138.86997938 138.86997938 138.86997938 0 0 1-138.86997936 138.86997938z m0-230.68754251a91.81756313 91.81756313 0 1 0 91.81756314 91.81756313 91.81756313 91.81756313 0 0 0-91.81756311-91.49080969z" p-id="1247" fill="#1296db"></path><path d="M406.78556844 92.12253219a433.27433625 433.27433625 0 0 1 447.32471062 155.20762406l-59.46902625 32.67528937 163.37644594 96.39210375V185.90061313l-65.35057781 36.92307656A480 480 0 0 0 33.96051781 554.80462906l46.39891032-11.76310406a433.60108875 433.60108875 0 0 1 326.42614031-450.91899281zM617.21443156 931.87746781a433.27433625 433.27433625 0 0 1-447.32471062-155.20762406l59.46902625-32.67528937L64.67528937 646.62219219v190.49693625l65.35057876-36.92307657a480 480 0 0 0 860.01361406-331.00068093l-46.39891031 11.76310406a433.60108875 433.60108875 0 0 1-326.42614032 450.91899281z" p-id="1248" fill="#1296db"></path></svg>