<?xml version="1.0" standalone="no"?><!DOCTYPE svg PUBLIC "-//W3C//DTD SVG 1.1//EN" "http://www.w3.org/Graphics/SVG/1.1/DTD/svg11.dtd"><svg t="1525684790870" class="icon" style="" viewBox="0 0 1024 1024" version="1.1" xmlns="http://www.w3.org/2000/svg" p-id="4642" xmlns:xlink="http://www.w3.org/1999/xlink" width="200" height="200"><defs><style type="text/css"></style></defs><path d="M742.346452 635.167082h-83.180219V272.913215c0-6.259536-2.62146-12.234548-7.231395-16.470444l-251.596266-231.356673a22.387912 22.387912 0 0 0-24.143011-4.018507 22.371927 22.371927 0 0 0-13.385433 20.488951v593.61054H279.633105a22.378321 22.378321 0 0 0-22.378321 22.378321v115.683132a22.378321 22.378321 0 0 0 22.378321 22.378321h143.186089V981.449221a22.378321 22.378321 0 0 0 22.378321 22.378321h128.863963a22.378321 22.378321 0 0 0 22.378321-22.378321v-185.842365h145.90985a22.378321 22.378321 0 0 0 22.378321-22.378321v-115.683132a22.381518 22.381518 0 0 0-22.381518-22.378321zM407.56677 92.534357l206.842821 190.202941v352.426587h-17.972989v-304.655265a22.378321 22.378321 0 1 0-44.756642 0v304.655265h-144.11319V92.534357z m144.11319 866.533346h-84.107321v-24.459505h41.623677a22.378321 22.378321 0 1 0 0-44.756642h-41.623677v-25.185202h41.623677a22.378321 22.378321 0 1 0 0-44.756642h-41.623677v-24.306053h84.107321v163.464044z m168.288171-208.220686H302.011426v-70.92649h417.959902v70.92649z" fill="#d81e06" p-id="4643"></path></svg>