<?xml version="1.0" standalone="no"?><!DOCTYPE svg PUBLIC "-//W3C//DTD SVG 1.1//EN" "http://www.w3.org/Graphics/SVG/1.1/DTD/svg11.dtd"><svg t="1525925994990" class="icon" style="" viewBox="0 0 1024 1024" version="1.1" xmlns="http://www.w3.org/2000/svg" p-id="4162" xmlns:xlink="http://www.w3.org/1999/xlink" width="200" height="200"><defs><style type="text/css"></style></defs><path d="M995.936568 9.376153a31.921674 31.921674 0 0 0-45.182429 0l-438.723303 438.755256L73.275579 9.376153A31.921674 31.921674 0 1 0 28.09315 54.558582l438.723303 438.723303-101.676442 101.676442a223.164133 223.164133 0 0 0-133.757884-44.639218 223.132179 223.132179 0 0 0-158.170455 65.441029 31.921674 31.921674 0 0 0 0 45.182429L186.167745 773.930593 50.588504 909.509834c-0.031954 0.031954-9.681949 9.681949-22.655122 22.782936a32.017535 32.017535 0 0 0 0.127815 45.086568c32.848329 32.784422 76.081587 46.684249 117.014183 46.588389 40.549153-0.031954 79.436717-17.286912 108.834055-46.68425a158.362177 158.362177 0 0 0 44.639217-90.940023l45.725641 45.757594c5.943375 5.943375 14.187411 9.362413 22.591214 9.362413 8.403804 0 16.64784-3.419038 22.591215-9.362413a223.100226 223.100226 0 0 0 65.441028-158.170455 223.164133 223.164133 0 0 0-44.639217-133.757884l101.676442-101.676442 101.676442 101.676442a223.164133 223.164133 0 0 0-44.639217 133.757884 223.132179 223.132179 0 0 0 65.441028 158.170455c5.943375 5.943375 14.187411 9.362413 22.591215 9.362413s16.64784-3.419038 22.591214-9.362413l45.725641-45.757594a158.426084 158.426084 0 0 0 44.639217 90.940023c29.397337 29.397337 68.284902 46.652296 108.834055 46.68425 40.96455 0.063907 84.197808-13.803967 117.014183-46.588389 12.429961-12.398007 12.461915-32.624653 0.127815-45.086568-12.973173-13.100987-22.623168-22.750983-22.655122-22.782936L837.702205 773.930593l112.956073-112.988026c5.943375-5.943375 9.362413-14.187411 9.362413-22.591214 0-8.403804-3.419038-16.64784-9.362413-22.591215a223.100226 223.100226 0 0 0-158.170455-65.441029 223.164133 223.164133 0 0 0-133.757884 44.639218l-101.676442-101.676442 438.723303-438.723303a31.761906 31.761906 0 0 0 0.159768-45.182429zM208.790913 932.101048c-18.373336 18.373336-41.539715 27.991378-63.651626 27.959424a108.482565 108.482565 0 0 1-44.894846-9.77781l126.983715-126.983715c6.135096 12.941219 9.554135 26.873001 9.586088 41.028458a95.413531 95.413531 0 0 1-28.023331 67.773643z m155.869794-70.074304l-110.687365-110.687365-110.687365-110.687365a159.512507 159.512507 0 0 1 88.09615-26.393696 159.065157 159.065157 0 0 1 112.956073 46.716203 159.09711 159.09711 0 0 1 46.716203 112.988026 159.4486 159.4486 0 0 1-26.393696 88.064197z m559.12457 88.255918a107.971307 107.971307 0 0 1-44.894846 9.77781c-22.11191 0.031954-45.27829-9.586088-63.651626-27.959424a95.413531 95.413531 0 0 1-28.023331-67.773643c0.031954-14.155457 3.450992-28.087238 9.586088-41.028458l126.983715 126.983715z m-244.093759-289.308141a159.065157 159.065157 0 0 1 112.956073-46.716203 159.512507 159.512507 0 0 1 88.09615 26.393696l-110.687365 110.687365-110.687365 110.687365a159.768136 159.768136 0 0 1-26.393696-88.096151 159.065157 159.065157 0 0 1 46.716203-112.956072z" fill="#1296db" p-id="4163"></path></svg>