<?xml version="1.0" standalone="no"?><!DOCTYPE svg PUBLIC "-//W3C//DTD SVG 1.1//EN" "http://www.w3.org/Graphics/SVG/1.1/DTD/svg11.dtd"><svg t="1525926051086" class="icon" style="" viewBox="0 0 1024 1024" version="1.1" xmlns="http://www.w3.org/2000/svg" p-id="4489" xmlns:xlink="http://www.w3.org/1999/xlink" width="200" height="200"><defs><style type="text/css"></style></defs><path d="M413.1 54L258.8 321.3l112.9 65.2L563.6 54z" fill="#60C13D" p-id="4490"></path><path d="M371.7 396.5c-1.7 0-3.4-0.4-5-1.3L253.8 330c-2.3-1.3-4-3.5-4.7-6.1-0.7-2.6-0.3-5.3 1-7.6L404.4 49c1.8-3.1 5.1-5 8.7-5h150.5c3.6 0 6.9 1.9 8.7 5s1.8 6.9 0 10l-192 332.5c-1.8 3.2-5.2 5-8.6 5z m-99.3-78.8l95.6 55.2L546.3 64H418.9L272.4 317.7zM699.9 375.2H543.6c-5.5 0-10-4.5-10-10s4.5-10 10-10h150.7l101.2-163.3c2.9-4.7 9.1-6.1 13.8-3.2 4.7 2.9 6.1 9.1 3.2 13.8l-104.2 168c-1.8 2.9-5 4.7-8.4 4.7z" fill="" p-id="4491"></path><path d="M699.1 365.2l57-90.1L628.5 54H478l179.6 311.2z" fill="#60C13D" p-id="4492"></path><path d="M699.1 375.2h-41.5c-3.6 0-6.9-1.9-8.7-5L469.3 59c-1.8-3.1-1.8-6.9 0-10 1.8-3.1 5.1-5 8.7-5h150.5c3.6 0 6.9 1.9 8.7 5l127.6 221.1a9.8 9.8 0 0 1-0.2 10.3l-57 90.1c-1.9 2.9-5.1 4.7-8.5 4.7z m-35.7-20h30.2l50.8-80.3L622.7 64H495.3l168.1 291.2z" fill="" p-id="4493"></path><path d="M145.2 878.2h308.6V747.9H69.9z" fill="#60C13D" p-id="4494"></path><path d="M453.8 888.2H145.2c-3.6 0-6.9-1.9-8.7-5L61.3 752.9c-1.8-3.1-1.8-6.9 0-10 1.8-3.1 5.1-5 8.7-5h383.9c5.5 0 10 4.5 10 10v130.3c0 2.7-1.1 5.2-2.9 7.1-2 1.9-4.5 2.9-7.2 2.9z m-302.8-20h292.9V757.9H87.3L151 868.2zM349.4 619.6c-3.5 0-6.8-1.8-8.7-5l-75.3-130.5-192.1-6c-5.5-0.2-9.9-4.8-9.7-10.3 0.2-5.5 4.8-9.8 10.3-9.7l197.6 6.2c3.5 0.1 6.6 2 8.3 5L358 604.6c2.8 4.8 1.1 10.9-3.7 13.7-1.5 0.9-3.2 1.3-4.9 1.3z" fill="" p-id="4495"></path><path d="M271.6 475l-106.5-4.4L37.5 691.7 112.7 822l179.7-311.1z" fill="#60C13D" p-id="4496"></path><path d="M112.7 832c-3.6 0-6.9-1.9-8.7-5L28.8 696.7c-1.8-3.1-1.8-6.9 0-10l127.6-221.1c1.9-3.2 5.3-5.1 9.1-5L272 465c3.4 0.1 6.5 2 8.3 5l20.7 35.9c1.8 3.1 1.8 6.9 0 10L121.4 827c-1.8 3.1-5.1 5-8.7 5zM49 691.7L112.7 802l168.1-291.2-15.1-26.2-95-3.9L49 691.7z" fill="" p-id="4497"></path><path d="M992.9 698.1L838.6 430.9 725.7 496l191.9 332.5z" fill="#60C13D" p-id="4498"></path><path d="M917.6 838.5c-3.6 0-6.9-1.9-8.7-5L717 501c-2.8-4.8-1.1-10.9 3.7-13.7l112.9-65.2c2.3-1.3 5-1.7 7.6-1 2.6 0.7 4.7 2.4 6.1 4.7l154.3 267.3c1.8 3.1 1.8 6.9 0 10l-75.3 130.3c-1.8 3.2-5.1 5.1-8.7 5.1zM739.4 499.7l178.3 308.8 63.7-110.3-146.5-253.7-95.5 55.2zM673.5 975.2c-3.6 0-7-1.9-8.8-5.3l-93.4-174.2c-1.6-3.1-1.6-6.7 0.2-9.7l78.1-135.3c2.8-4.8 8.9-6.4 13.7-3.7 4.8 2.8 6.4 8.9 3.7 13.7l-75.3 130.5 90.8 169.3c2.6 4.9 0.8 10.9-4.1 13.5-1.7 0.8-3.3 1.2-4.9 1.2z" fill="" p-id="4499"></path><path d="M580.4 790.3l49.5 94.4h255.3l75.3-130.4H601.2z" fill="#60C13D" p-id="4500"></path><path d="M885.2 894.7H629.9c-3.7 0-7.1-2.1-8.9-5.4l-49.5-94.4c-1.6-3-1.5-6.7 0.2-9.6l20.7-35.9c1.8-3.1 5.1-5 8.7-5h359.3c3.6 0 6.9 1.9 8.7 5s1.8 6.9 0 10l-75.3 130.3c-1.7 3.1-5 5-8.6 5z m-249.2-20h243.5l63.7-110.3H607l-15.1 26.2 44.1 84.1z" fill="" p-id="4501"></path></svg>