<?xml version="1.0" standalone="no"?><!DOCTYPE svg PUBLIC "-//W3C//DTD SVG 1.1//EN" "http://www.w3.org/Graphics/SVG/1.1/DTD/svg11.dtd"><svg t="1525926091197" class="icon" style="" viewBox="0 0 1024 1024" version="1.1" xmlns="http://www.w3.org/2000/svg" p-id="6956" xmlns:xlink="http://www.w3.org/1999/xlink" width="200" height="200"><defs><style type="text/css"></style></defs><path d="M958.144106 816.585043c0 78.526471-63.212694 142.190443-141.178393 142.190443H207.033263c-77.964676 0-141.178393-63.663972-141.178393-142.190443V202.254424c0-78.526471 63.212694-142.190443 141.178393-142.190443h609.93245c77.964676 0 141.178393 63.663972 141.178393 142.190443v614.330619z" fill="#37A8D1" p-id="6957"></path><path d="M760.715595 571.551304l87.6165-21.345144v-81.56569l-87.6165-21.345144a257.672594 257.672594 0 0 0-29.219485-71.080895l46.959521-77.486792-57.252958-57.674561-76.928067 47.302329a253.775844 253.775844 0 0 0-70.587662-29.434379l-21.177322-88.251974h-80.998778l-21.178345 88.251974a253.885338 253.885338 0 0 0-70.586639 29.429263l-76.92909-47.30233-57.251935 57.679678 46.959521 77.481675c-13.078877 21.798469-22.99676 45.700855-29.219485 71.080895l-87.636966 21.345144 0.020466 81.566714 87.6165 21.346167c6.222725 25.38004 16.140609 49.282427 29.219485 71.079872l-46.979987 77.487815 57.271378 57.673538 76.92909-47.302329a253.842359 253.842359 0 0 0 70.568219 29.434379l21.197788 88.251973 80.978312-0.005116 21.197788-88.246857a253.509784 253.509784 0 0 0 70.568219-29.429263l76.948533 47.302329 57.252958-57.678654-46.959521-77.482698a257.70841 257.70841 0 0 0 29.218462-71.081919z m-248.705362 65.096601c-69.75776 0-126.318964-56.96234-126.318964-127.22766s56.561204-127.22766 126.318964-127.22766 126.318964 56.96234 126.318964 127.22766-56.561204 127.22766-126.318964 127.22766z" fill="#FFFFFF" p-id="6958"></path></svg>