<?xml version="1.0" standalone="no"?><!DOCTYPE svg PUBLIC "-//W3C//DTD SVG 1.1//EN" "http://www.w3.org/Graphics/SVG/1.1/DTD/svg11.dtd"><svg t="1525926126991" class="icon" style="" viewBox="0 0 1024 1024" version="1.1" xmlns="http://www.w3.org/2000/svg" p-id="7148" xmlns:xlink="http://www.w3.org/1999/xlink" width="200" height="200"><defs><style type="text/css"></style></defs><path d="M347.7 960V64l328.6 136.1v112h-67.2V245l-194.2-80.4v694.8L609.1 779v-67.1h67.2v112z" fill="#A6CBDD" p-id="7149"></path><path d="M208.7 246.3m-55.5 0a55.5 55.5 0 1 0 111 0 55.5 55.5 0 1 0-111 0Z" fill="#A6CBDD" p-id="7150"></path><path d="M98.5 98.5m-34.5 0a34.5 34.5 0 1 0 69 0 34.5 34.5 0 1 0-69 0Z" fill="#A6CBDD" p-id="7151"></path><path d="M314.8 438.9m-50.5 0a50.5 50.5 0 1 0 101 0 50.5 50.5 0 1 0-101 0Z" fill="#A6CBDD" p-id="7152"></path><path d="M229.3 597.8m-43.2 0a43.2 43.2 0 1 0 86.4 0 43.2 43.2 0 1 0-86.4 0Z" fill="#A6CBDD" p-id="7153"></path><path d="M319.7 723.7m-55.5 0a55.5 55.5 0 1 0 111 0 55.5 55.5 0 1 0-111 0Z" fill="#A6CBDD" p-id="7154"></path><path d="M153.2 904.5m-55.5 0a55.5 55.5 0 1 0 111 0 55.5 55.5 0 1 0-111 0Z" fill="#A6CBDD" p-id="7155"></path><path d="M145.1 442.1m-63.7 0a63.7 63.7 0 1 0 127.4 0 63.7 63.7 0 1 0-127.4 0Z" fill="#A6CBDD" p-id="7156"></path><path d="M441 571.7m-59.7 0a59.7 59.7 0 1 0 119.4 0 59.7 59.7 0 1 0-119.4 0Z" fill="#A6CBDD" p-id="7157"></path><path d="M552.5 628.7m-40.5 0a40.5 40.5 0 1 0 81 0 40.5 40.5 0 1 0-81 0Z" fill="#60A9D1" p-id="7158"></path><path d="M552.5 512m-40.5 0a40.5 40.5 0 1 0 81 0 40.5 40.5 0 1 0-81 0Z" fill="#60A9D1" p-id="7159"></path><path d="M552.5 395.3m-40.5 0a40.5 40.5 0 1 0 81 0 40.5 40.5 0 1 0-81 0Z" fill="#60A9D1" p-id="7160"></path><path d="M674.8 512m-40.5 0a40.5 40.5 0 1 0 81 0 40.5 40.5 0 1 0-81 0Z" fill="#60A9D1" p-id="7161"></path><path d="M674.8 395.3m-40.5 0a40.5 40.5 0 1 0 81 0 40.5 40.5 0 1 0-81 0Z" fill="#60A9D1" p-id="7162"></path><path d="M797.2 628.7m-40.5 0a40.5 40.5 0 1 0 81 0 40.5 40.5 0 1 0-81 0Z" fill="#60A9D1" p-id="7163"></path><path d="M797.2 512m-40.5 0a40.5 40.5 0 1 0 81 0 40.5 40.5 0 1 0-81 0Z" fill="#60A9D1" p-id="7164"></path><path d="M919.5 512m-40.5 0a40.5 40.5 0 1 0 81 0 40.5 40.5 0 1 0-81 0Z" fill="#60A9D1" p-id="7165"></path><path d="M919.5 395.3m-40.5 0a40.5 40.5 0 1 0 81 0 40.5 40.5 0 1 0-81 0Z" fill="#60A9D1" p-id="7166"></path><path d="M428.6 336.4m-47.2 0a47.2 47.2 0 1 0 94.4 0 47.2 47.2 0 1 0-94.4 0Z" fill="#A6CBDD" p-id="7167"></path><path d="M463.5 773.9m-34.9 0a34.9 34.9 0 1 0 69.8 0 34.9 34.9 0 1 0-69.8 0Z" fill="#A6CBDD" p-id="7168"></path></svg>