<svg xmlns="http://www.w3.org/2000/svg" viewBox="0 0 1750.67 1046.88"><defs><style>.cls-1{fill:#61b8ff;}</style></defs><title>资源 2</title><g id="图层_2" data-name="图层 2"><g id="图层_1-2" data-name="图层 1"><polygon class="cls-1" points="79.08 553.11 79.08 548.33 62.12 532.33 41.2 532.33 41.2 538.48 55.6 538.48 71.1 553.11 79.08 553.11"/><polygon class="cls-1" points="72.98 554.87 80.56 562.01 82.45 560.24 82.45 548.32 80.32 546.31 80.32 554.87 72.98 554.87"/><polygon class="cls-1" points="75.21 596.49 80.45 601.43 99.6 601.43 99.6 594.78 94.36 589.84 94.36 596.49 75.21 596.49"/><polygon class="cls-1" points="79.07 595.24 92.85 595.24 92.85 576.1 54.98 540.37 41.2 540.37 79.07 576.1 79.07 595.24"/><polygon class="cls-1" points="86.9 958.58 67.67 940.44 60.68 940.44 79.91 958.58 79.91 968.3 86.9 968.3 86.9 958.58"/><polygon class="cls-1" points="47.49 931.26 47.49 910.58 41.86 905.25 38.27 908.64 38.27 931.26 62.76 954.37 67.37 950.02 47.49 931.26"/><polygon class="cls-1" points="47.49 908.09 47.49 897.97 44.81 897.97 35.89 906.4 35.89 909.24 42.29 903.19 47.49 908.09"/><polygon class="cls-1" points="77.1 584.48 77.1 577.49 63.56 564.71 58.57 569.41 58.57 576.4 63.56 571.7 77.1 584.48"/><polygon class="cls-1" points="59.09 939 59.09 596.32 73.42 582.79 63.69 573.6 49.35 587.13 49.35 929.81 59.09 939"/><polygon class="cls-1" points="1675.6 34.47 1681.57 40.1 1675.43 45.89 1669.46 40.26 1629.56 40.26 1635.7 34.47 1675.6 34.47"/><path class="cls-1" d="M1659.38,834.71H293L179,725.37a9.08,9.08,0,0,1-2.86-6.58V59.31c0-5.18,4.47-9.4,10-9.4H1581.38l80.12,75.6v688h-4.25V127.16l-77.62-73.25H186.08a5.57,5.57,0,0,0-5.71,5.39V718.79a5.19,5.19,0,0,0,1.64,3.78L294.76,830.7H1659.38Z"/><path class="cls-1" d="M1709.73,737.23H396.44a53.43,53.43,0,0,1-36.89-14.42L304.9,671.25a47.54,47.54,0,0,1-15.29-34.81V0H1602.9a53.46,53.46,0,0,1,36.89,14.42L1694.45,66a47.58,47.58,0,0,1,15.28,34.81ZM313.85,22.87V636.44A25.45,25.45,0,0,0,322,655.08l54.65,51.56a28.6,28.6,0,0,0,19.75,7.73H1685.5V100.8a25.46,25.46,0,0,0-8.18-18.64l-54.65-51.57a28.62,28.62,0,0,0-19.75-7.72Z"/><polygon class="cls-1" points="1668.11 816.81 1668.11 841.89 1595.93 841.89 1576.19 823.26 1648.37 823.26 1648.37 798.18 1668.11 816.81"/><path class="cls-1" d="M213.84,58.6H179.45V80.92L167.84,70V59.68c0-6.65,5.7-12,12.75-12h21.64Z"/><polygon class="cls-1" points="1620.47 833.53 1601.76 815.88 209.4 815.88 208.71 815.22 147.37 757.35 147.37 521.46 152.11 521.46 152.11 755.49 211.37 811.4 1603.72 811.4 1623.83 830.37 1620.47 833.53"/><polygon class="cls-1" points="39.84 623.54 37.71 623.54 37.71 570.63 38.02 570.34 167.09 448.57 168.59 449.98 39.84 571.46 39.84 623.54"/><polygon class="cls-1" points="1734.32 46.4 1734.32 53.57 1722.37 53.57 1699.13 31.63 1656.96 31.63 1656.96 22.41 1708.89 22.41 1734.32 46.4"/><polygon class="cls-1" points="48.58 550.17 44.4 546.22 35.89 546.22 44.32 554.18 48.58 550.17"/><polygon class="cls-1" points="154.79 500.6 147.05 493.29 131.31 493.29 146.91 508.03 154.79 500.6"/><polygon class="cls-1" points="206.29 480.76 189.05 496.96 179.11 496.96 143.07 531.04 143.07 514.85 179.11 480.76 206.29 480.76"/><polygon class="cls-1" points="209.3 493.51 205.55 496.96 191.87 496.96 202.41 487.02 209.3 493.51"/><polygon class="cls-1" points="149.65 447.48 129.28 447.48 129.28 395.32 144.41 381.04 144.41 433.21 164.78 433.21 149.65 447.48"/><polygon class="cls-1" points="144 490.38 131.31 490.38 131.31 471.56 170.1 434.94 170.1 139.91 186.43 139.91 186.43 450.34 144 490.38"/><polygon class="cls-1" points="1739.38 64.25 1736.54 66.93 1725.18 56.21 1736.18 56.21 1736.18 43.38 1739.38 46.39 1739.38 64.25"/><polygon class="cls-1" points="1750.67 100.79 1750.67 108.77 1727.68 108.77 1721.4 102.84 1744.38 102.84 1744.38 94.86 1750.67 100.79"/><polygon class="cls-1" points="1680.13 34.47 1696.65 34.47 1742.08 77.34 1742.08 100.29 1725.56 100.29 1725.56 77.34 1680.13 34.47"/><polygon class="cls-1" points="44.06 641.45 32.04 630.11 32.04 567.74 49.74 551.04 61.75 562.38 44.06 579.08 44.06 641.45"/><polygon class="cls-1" points="139.65 408.26 135.4 408.26 135.4 27.93 319.51 27.93 319.51 31.94 139.65 31.94 139.65 408.26"/><rect class="cls-1" x="1605.83" y="24.93" width="66.65" height="4.01"/><polygon class="cls-1" points="1718.07 827.87 1655.57 827.87 1655.57 823.86 1716.31 823.86 1742.25 799.38 1742.25 102.84 1746.5 102.84 1746.5 801.04 1718.07 827.87"/><polygon class="cls-1" points="1636.54 832.71 1634.42 832.71 1634.42 784.1 1702.4 784.1 1702.44 607.11 1731.22 511.02 1731.22 106.11 1733.34 106.11 1733.3 511.43 1704.53 607.51 1704.53 786.11 1636.54 786.11 1636.54 832.71"/><path class="cls-1" d="M19.91,1019,17,1015.27s.51-1.78,1-3.57,1.35-3.53,1.35-3.53l2.81-1.65.89,1.44c.48.7,1,1.35,1,1.35l-1.34,4.1c-.58,2.16-1.18,4.32-1.18,4.32Z"/><path class="cls-1" d="M9.28,1008.84l-3.75,1.93a11.25,11.25,0,0,1-.8-1.35c-.42-.84-1-2-1.53-3.08s-1.11-2.25-1.52-3.09a13,13,0,0,1-.64-1.42l2-3.58.52,1.41a19.61,19.61,0,0,0,1.32,3L7,1007l3.81-1.81L10,1007Z"/><path class="cls-1" d="M48.27,906.7l5.33-2.34A32.21,32.21,0,0,1,57.38,903l1.73-.57,1.54-3.91-5.81,1.9A33.36,33.36,0,0,0,50.94,902l-1.74.77Z"/><path class="cls-1" d="M3.66,1003.46H3.49c-.09,0-.33-.15-2.74-6.73l0-.08,0-.07,2.17-3.43c1-1.49,2.16-2.92,2.41-3.24-.09-.4-.56-2.23-1.3-5.14-.06-.41-.12-.82-.19-1.25a80.13,80.13,0,0,1-1.17-12.89,73.2,73.2,0,0,1,12.6-40.78C24.56,915.68,38.8,906,49,901.72l2.1-.92,1.93-.85,1.88-.62,1.94-.63a44.34,44.34,0,0,1,6.27-1.81l5.54-1.24.08.36-5.54,1.25A43.39,43.39,0,0,0,57,899l-1.94.64-1.86.61-1.92.84-2.1.93C39,906.34,24.84,915.94,15.61,930A72.76,72.76,0,0,0,3.07,970.61a80.65,80.65,0,0,0,1.17,12.83c.06.43.13.84.19,1.23l1.31,5.21,0,.08-.05.07s-1.29,1.62-2.45,3.29l-2.11,3.35c.87,2.39,2.32,6.2,2.55,6.47l-.13.1Z"/><path class="cls-1" d="M8.17,1023.57l-1.57-2a32.1,32.1,0,0,1-2.75-3.92C2,1014.72.23,1011.8.23,1011.8l-.23-.38,7.56-3.6.4.73-6.75,3.22c.54.88,2,3.17,3.38,5.45A31.94,31.94,0,0,0,7.29,1021l1.07,1.38,18.06-12.58-2-2.63-1.87-3c-.66-.05-2.67-.24-4.71-.54-2.34-.4-4.78-.94-4.8-.95l-.21,0-.76-1.56c-.13-.29-.29-.6-.47-.94a19.45,19.45,0,0,1-1.32-3.05c-.21-.61-.46-1.27-.73-2-.49-1.28-1-2.73-1.51-4.34-.2-.92-.45-1.84-.71-2.81A39.33,39.33,0,0,1,6,982.32a70.92,70.92,0,0,1-.32-21.62,68.59,68.59,0,0,1,7.87-23.63,76.51,76.51,0,0,1,15.63-19.91,80.63,80.63,0,0,1,18.69-12.52,84.08,84.08,0,0,1,15.2-5.47l6-1.35.2.8-6,1.35a82.51,82.51,0,0,0-15,5.4,79.59,79.59,0,0,0-18.49,12.38,75.69,75.69,0,0,0-15.46,19.69A67.78,67.78,0,0,0,6.58,960.8a70.33,70.33,0,0,0,.32,21.4,38.68,38.68,0,0,0,1.22,5.6c.26,1,.51,1.91.71,2.82.46,1.56,1,3,1.49,4.26q.41,1.07.74,2a18.22,18.22,0,0,0,1.28,2.94c.18.36.34.68.47,1l.58,1.18c.63.14,2.63.56,4.55.89,2.43.35,4.84.55,4.84.55l.25,0,2.09,3.34,2.52,3.26-.35.24Z"/><path class="cls-1" d="M17.21,1024.2l-.28-.27a23.51,23.51,0,0,1-1.7-1.89l-1.77-2.28,5.57-4,.52.65-4.88,3.47,1.27,1.62a20,20,0,0,0,1.35,1.53l6.35-5.09c.07-.42.32-1.65.64-2.86l.83-2.8-2-2.61.7-.49,2.29,2.93-.94,3.18c-.38,1.44-.65,2.92-.65,2.94l0,.14-.12.1Z"/><path class="cls-1" d="M159.6,998.36s-1.76,4.35-1.88,4.3l-3.9.88-3.82.71-2.91-1.47,1.56-3s2.27-.38,4.53-.92l4.4-1.25Z"/><path class="cls-1" d="M155.6,1012.14l3.65,2.1s-1.34,2.13-2.8,4.18l-3.16,3.95-4.18.22s6.21-7.53,6-7.69l-3.57-2.21Z"/><path class="cls-1" d="M42.46,1031.31c-.14.21-9.62-6.41-9.4-6.65l-4.29.64,1.41,1.23a32.7,32.7,0,0,0,3.19,2.6l4.9,3.51,2.11-.65Z"/><path class="cls-1" d="M83.45,1046.88q-1.65,0-3.32-.07a84.94,84.94,0,0,1-42.72-13.5c-.89-.66-1.76-1.27-2.6-1.86-1.49-1-2.89-2-4.09-3.06l-2.05-1.78-2.76-2.4-3.81-4,.29-.24,3.8,4,2.75,2.39,2.05,1.78c1.18,1,2.58,2,4.06,3,.84.6,1.72,1.21,2.6,1.87a84.48,84.48,0,0,0,42.5,13.43q1.66.07,3.3.07c16.53,0,31.45-5.12,40.21-10.16a55.33,55.33,0,0,0,7.08-4.34l.22-.15a44.06,44.06,0,0,0,4.89-3.65l4.23-3.61.06,0h.08l4.15.25,4.2.1.73-.75a16.55,16.55,0,0,0,1.64-1.85l2.27-2.83.31.22-2.27,2.82a16.84,16.84,0,0,1-1.66,1.88l-.85.88h-.09l-4.3-.11-4.08-.25-4.17,3.55a44.18,44.18,0,0,1-4.93,3.68l-.21.14a55.25,55.25,0,0,1-7.12,4.37C115.05,1041.72,100.07,1046.88,83.45,1046.88Z"/><path class="cls-1" d="M82.79,1044.71a83.39,83.39,0,0,1-42.09-12,50.84,50.84,0,0,1-5-3.37c-.82-.61-1.61-1.19-2.4-1.71L28.05,1023c-2.7-2.65-4.17-4.29-4.18-4.31l.66-.53s1.48,1.64,4.13,4.26l5.18,4.47c.75.5,1.55,1.09,2.38,1.7a47.67,47.67,0,0,0,4.94,3.33c10.46,6.55,28.1,13.09,46.39,11.75a87,87,0,0,0,25.39-5.3,87.43,87.43,0,0,0,19.51-10.93,85.49,85.49,0,0,0,11.31-10.77l3.57-4.44c-.21-.61-.88-2.48-1.59-4.25-.87-2.14-1.82-4.17-1.83-4.2l-.1-.2.77-1.15,3.07-5.87.38.15,21.77,9-3.36,6.44a23.85,23.85,0,0,1-1.79,3c-.24.37-.47.72-.67,1l-1.42,2.15-7.08-4.37.47-.68,6.34,3.91.94-1.44c.2-.32.43-.68.68-1.05a24.78,24.78,0,0,0,1.74-2.91l3-5.69-20.57-8.49-2.72,5.21-.55.82c.26.57,1,2.27,1.75,4,.87,2.15,1.67,4.47,1.67,4.49l.07.21-.13.17-3.72,4.62a86.28,86.28,0,0,1-11.45,10.9,88.09,88.09,0,0,1-19.73,11.05,88,88,0,0,1-25.66,5.36Q85.19,1044.71,82.79,1044.71Z"/><path class="cls-1" d="M163.66,1003.35l-6.44-2.6.34-.75,5.6,2.27,1.51-3.75-7.83-2.65-3,.88-2.85.75c-.16.4-.55,1.2-1.5,3l-.77-.36c.55-1,1.15-2.19,1.39-2.72l-.71-.32,4.19-1.1,3.12-.92.14,0,.13,0,8.79,3Z"/><path class="cls-1" d="M70.87,894.58l4.9-.62s1.42,1.26,2.76,2.73l2.57,2.84.11,3.12-3.54.09s-1.47-1.54-3.09-3.08l-3.37-3Z"/><path class="cls-1" d="M85.52,890.87l.1-4s10.48.59,10.45.87l2.28,3.39-5-.77-5-.33-.24,4Z"/><path class="cls-1" d="M159.72,973.83s-.21,2.77-.42,5.54l-1,5.47,1.45,1.58,1.3,1.6c.29.06,2.16-11.42,1.87-11.45Z"/><path class="cls-1" d="M159.65,996l-.35-.14a34.25,34.25,0,0,0,1.68-5.1,66.06,66.06,0,0,0,2.62-13.88c.65-5.3.33-11.81-1-19.9a80,80,0,0,0-7.84-21.57,83,83,0,0,0-14.32-18.38,85.18,85.18,0,0,0-16.76-12.11,54.2,54.2,0,0,0-5-2.49c-.88-.4-1.7-.77-2.49-1.16-1.48-.62-2.9-1.12-4.15-1.55l-1.92-.68a27.26,27.26,0,0,0-3.76-1.15l-.21-.05-1.44-.37-.08,0,0-.08-1.82-3.63c-.82-1.63-1.77-3.13-2-3.48l-7.33-1.13.06-.36L101,890l0,.07s1.12,1.72,2.06,3.58l1.77,3.55,1.35.35.22.05a28.52,28.52,0,0,1,3.8,1.16l1.9.68c1.26.44,2.68.94,4.19,1.57.78.39,1.61.76,2.48,1.15a54.21,54.21,0,0,1,5.07,2.51,85.31,85.31,0,0,1,16.83,12.16,83.53,83.53,0,0,1,14.38,18.47A80.1,80.1,0,0,1,163,956.95c1.31,8.13,1.62,14.67,1,20a66,66,0,0,1-2.63,13.93A32.7,32.7,0,0,1,159.65,996Z"/><path class="cls-1" d="M157.44,995.31l-.8-.32a37.67,37.67,0,0,0,1.77-5.47,39.56,39.56,0,0,0,1.51-6.45l.7-4c.1-1.39.2-2.91.32-4.49.94-11.2-1.82-28.59-12.36-43.81-10.64-15.42-26.31-24.8-37.42-28.44a74,74,0,0,0-15.52-3.92,34.8,34.8,0,0,0-4.43-.58l-1.42-.09c-.44.45-1.84,1.9-3.1,3.33a42.34,42.34,0,0,0-2.92,3.61l-.12.17h-.22c-3.36.09-7.15.26-7.58.39l-.12-.35-.5,0-2.65-22.1.23-.15c.64-.42,14-.91,14.7-.54l.23.11v.27l-.43,7.56-.87,0,.42-7.2c-1.91-.15-11.47.2-13.36.48L76,904.37c.83-.11,2.7-.23,7.15-.36A42.83,42.83,0,0,1,86,900.5c1.52-1.73,3.24-3.48,3.26-3.5l.14-.14,1.82.11a35.13,35.13,0,0,1,4.53.59,75.27,75.27,0,0,1,15.69,4c11.22,3.68,27.07,13.18,37.84,28.77,10.66,15.39,13.44,33,12.5,44.32-.12,1.57-.22,3.08-.32,4.52l-.71,4.08a40.4,40.4,0,0,1-1.52,6.54A38.52,38.52,0,0,1,157.44,995.31Z"/><path class="cls-1" d="M74.12,903l-.15-.14-2.3-2.16-2.52-2.23-1.69-8.82,6-.76.85,6.54-.86.1-.74-5.72-4.2.54L70,898l2.32,2.05,2.15,2,1.6-.21c.91-.13,1.83-.21,1.83-.21l.08.82s-.9.08-1.79.2Z"/><polygon class="cls-1" points="595.73 752.27 572.15 752.27 547.58 775.46 547.58 787.86 566.69 787.86 595.73 760.47 595.73 752.27"/><polygon class="cls-1" points="51.06 904.45 48.8 904.45 48.8 853.15 49.13 852.84 73.27 830.06 509.63 830.06 570.85 772.28 572.46 773.8 510.57 832.19 74.21 832.19 51.06 854.03 51.06 904.45"/><polygon class="cls-1" points="612.77 752.18 607.58 752.18 607.58 757.21 612.77 757.21 630.09 773.57 630.09 768.53 612.77 752.18"/><polygon class="cls-1" points="581.75 733.28 578.45 736.4 583.64 741.3 603.85 741.3 622.16 758.59 626.41 754.58 603.85 733.28 581.75 733.28"/><polygon class="cls-1" points="54.96 842.7 54.96 847.11 62.3 847.11 76.59 833.63 102.5 833.63 102.5 827.96 70.58 827.96 54.96 842.7"/><polygon class="cls-1" points="610.79 750.32 603.62 743.54 564.13 743.54 553.57 753.52 560.74 760.29 571.31 750.32 610.79 750.32"/><path class="cls-1" d="M77.71,918.06,79,918l2-2.67,2.25-2.68,0-6.32-2,.09.15,4.34-2.06,2.45-1.89,2.44Z"/><path class="cls-1" d="M77,916.29l-1.61,2.55.56.5a24.17,24.17,0,0,1,3.12-.32l.48-.67s-2.28.08-2.28.14Z"/><path class="cls-1" d="M65.93,919.21l-.72,1.94,2,5.46,1.48-.52.67-1.79a16.08,16.08,0,0,0-1.57.41Z"/><path class="cls-1" d="M66.62,920.21l1.33,4L72.53,923s.36-.84,1-2,1.56-2.76,2.59-4.36a39.65,39.65,0,0,1,3.11-4.21l1.57-1.87-.18-4.15-1.69,1.87a42.47,42.47,0,0,0-3.36,4.24c-1.12,1.61-2.14,3.21-2.85,4.39s-1.13,2-1.13,2Z"/><path class="cls-1" d="M36,993.95a73.92,73.92,0,0,1-7.67-1.75L26.3,993a76.25,76.25,0,0,0,7.76,1.92s.29.55.58,1.1l.69,1L37.26,996l-.66-1Z"/><path class="cls-1" d="M21.39,992s-.6-1.45-1.1-2.92-.84-3-.84-3l-2.18-1.17-.84,1.27s.48,1.71,1,3.43,1.23,3.35,1.23,3.35,2.5,1.09,4.95,1.93,5.09,1.43,5.09,1.43l.78-1.68s-2.07-.48-4.06-1.15S21.39,992,21.39,992Z"/><path class="cls-1" d="M19.26,985.31s-.77-2.94-.7-3l-.84.15L16.55,984l-1,1.57.24.87,1.5-2.27Z"/><path class="cls-1" d="M69.27,919l1.84-.46s.6-1.23,1.3-2.33l1.44-2.28-1.65-1.28s-2.07.3-2.06.36l1.69,1.22a26.45,26.45,0,0,0-1.34,2.36Z"/><path class="cls-1" d="M25.69,992.81l-1.53-3.91a60.13,60.13,0,0,1-2.52-10.7A55.78,55.78,0,0,1,27,945.74a59.87,59.87,0,0,1,23-24.71,62,62,0,0,1,10.33-5l4.14-1.44s1.33.74,2.58,1.56l2.45,1.64.88-1.74c.46-.88,1-1.72,1-1.72s-1.19-.86-2.45-1.66L66.24,911l-1.18.29a24.64,24.64,0,0,0-3.25,1,64.81,64.81,0,0,0-11.09,4.8A68.82,68.82,0,0,0,37.05,927a66.86,66.86,0,0,0-11.65,15A60.43,60.43,0,0,0,19,959.65a59.63,59.63,0,0,0-.8,16.22,57.19,57.19,0,0,0,2.17,11.33,22.54,22.54,0,0,0,1,3.1l.41,1.07,2,.76Z"/><path class="cls-1" d="M38.15,1001.61l-.78-1s-1.72-.1-3.44-.33l-3.53-.53L24.62,1003l1.06,1.62,3.91-2.3,3.22.49c1.63.19,3.27.26,3.27.26Z"/><polygon class="cls-1" points="36.87 1003.05 39.96 1003.14 40.16 1002.43 38.26 1000.06 37.39 1000.01 38.76 1001.74 36.87 1003.05"/><polygon class="cls-1" points="45.11 1010.65 47.21 1010.31 51.22 1005.94 50.04 1004.93 48 1005.33 49.22 1006.36 45.11 1010.65"/><path class="cls-1" d="M45.68,1009.56l3-3.06L46.92,1005l-1.6-1.66a49.45,49.45,0,0,1-7.65.26c-1.94-.07-4-.2-5.48-.38l-2.47-.38L26,1005.07l2.53.47c1.54.23,3.64.44,5.63.57a51,51,0,0,0,7.89,0l1.74,1.8C44.71,1008.77,45.68,1009.56,45.68,1009.56Z"/><path class="cls-1" d="M128.6,997.73a30.14,30.14,0,0,1,1.23,3.5c.52,1.76,1,3.63,1,3.63l1.77,1.28-.92-3.71a32.3,32.3,0,0,0-1.17-3.57l1.34-2.11-1.95-1.05Z"/><path class="cls-1" d="M134.12,1010.73s-4.34,4.66-4.47,4.53l0,2.33,1.6.08c.14.13,5.14-5.14,5.14-5.14s-.27-2.59-.78-5.07-1.12-4.8-1.12-4.8l-2,.18s.51,1.88.92,3.86S134.12,1010.73,134.12,1010.73Z"/><polygon class="cls-1" points="129.07 1015.77 126.7 1017.82 127.26 1018.43 131.22 1018.67 131.92 1018.06 129.04 1017.92 129.07 1015.77"/><path class="cls-1" d="M43.13,1008.12l-1.28-1.33-2.81.13c-1.45.06-2.86,0-2.86,0l-.19,1-.14,1,1.42,1.46.25-2,2.85-.09Z"/><path class="cls-1" d="M132.72,1006.77a29.88,29.88,0,0,1-2.84,3.18,56.08,56.08,0,0,1-8.52,7.43,64.41,64.41,0,0,1-32.47,11.89,68.05,68.05,0,0,1-18.74-1.13,66.93,66.93,0,0,1-15.43-5.26c-2.14-1-4-2.21-5.67-3.13L45,1016.92a30.31,30.31,0,0,1-3.36-2.7s0-1.41.1-2.83a25.08,25.08,0,0,1,.27-2.82l-2,.11-2,.06-.33,2.87c-.11,1.48-.22,3-.22,3l3.44,2.93a64,64,0,0,0,9.94,6.65,69,69,0,0,0,70.18-2.8,74.48,74.48,0,0,0,9.32-7.42l3.11-3.25s-.13-1-.26-2Z"/><path class="cls-1" d="M134.6,992.2l-.56,1.09,1.48,3a29.63,29.63,0,0,1,1.24,3.13l5.81,3.15,1-1.64-4.06-2.06L138.27,996l-1.34-2.78Z"/><path class="cls-1" d="M136.59,992.53l-.7-1.29-.8-1.29-.72.2a29.84,29.84,0,0,1-1.31,2.7l.39.73,1-1.94Z"/><path class="cls-1" d="M139.45,982l-.65-.78-.72-.77-6-1.08s-.34,1.46-.34,1.46l1.34,1.45.42-1.49Z"/><path class="cls-1" d="M138.15,982.07l-4.3-.9s-1.1,4.35-1.22,4.32a68.68,68.68,0,0,1,4.09,6.13c1.74,3.19,3.24,6.87,3.24,6.87l3.9,1.93s-1.41-3.84-3.08-7.2a73.38,73.38,0,0,0-4-6.46C137,986.79,138.15,982.07,138.15,982.07Z"/><path class="cls-1" d="M85.81,920.25a56.67,56.67,0,0,1,5.44-5.39l.29-2.1a58.05,58.05,0,0,0-5.63,5.38L83.3,918v2.11Z"/><path class="cls-1" d="M95,909.23c0-.17,6.39,1.37,6.39,1.37l2.17-1.22-.75-1.3s-7.28-1.78-7.31-1.59c0,0-2.25,1.55-4.25,3.14a29.3,29.3,0,0,0-2.69,2.3L87.37,913l1.16,1.44a39.92,39.92,0,0,1,3.07-2.69C93.21,910.49,95,909.23,95,909.23Z"/><path class="cls-1" d="M102.13,910.78c0-.07,3.05,1,3.05,1l.28-.76-.84-1.71c-.43-.86-.9-1.7-.9-1.7l-.92-.23.69,1.17.64,1.22-1,.5Z"/><path class="cls-1" d="M138,984.87s-.43,1.74-.49,1.73l1.45,2.21,1.41,2.33,2-.72.71-1.87-2,.77-1.44-2.27Z"/><path class="cls-1" d="M92,912.36s1.59.17,4.35.66l4.91,1.18c1.87.53,3.92,1.31,6.2,2.06a63.48,63.48,0,0,1,27.12,20.64A61.62,61.62,0,0,1,143,952.78,56.65,56.65,0,0,1,145.77,968a40.39,40.39,0,0,1-.05,6.19,28.8,28.8,0,0,1-.51,4.75c-.38,2.63-.73,4.11-.73,4.11l-2.72,1.33-2.68,1.19,1.17,1.6,1,1.62s1.48-.51,2.82-1.15l2.72-1.33a43.2,43.2,0,0,0,1.06-4.26c.22-1.38.48-3,.78-5s.24-4.11.37-6.49a59.87,59.87,0,0,0-10.27-33.13,64.61,64.61,0,0,0-27.44-22.79,61.13,61.13,0,0,0-11.48-3.9L96.5,910l-1.19-.18-1.68,1.25Z"/></g></g></svg>